<svg xmlns="http://www.w3.org/2000/svg" xmlns:xlink="http://www.w3.org/1999/xlink" version="1.1"
     id="Слой_1" x="0px" y="0px" viewBox="0 0 200 200" enable-background="new 0 0 200 200"
     xml:space="preserve">
								<g>
									<g>
										<g>
											<circle fill="#fff" cx="27.7" cy="62.3" r="3.1"/>
                                            <circle fill="#fff" cx="40.2" cy="62.3" r="3.1"/>
                                            <circle fill="#fff" cx="52.8" cy="62.3" r="3.1"/>
                                            <path fill="#fff"
                                                  d="M24.5,175.5H65l-40.5-38.1V175.5z M30.8,151.9l18.3,17.3H30.8V151.9z"/>
                                            <path fill="#fff"
                                                  d="M197.5,21.4V2.5h-18.9v6.3h-62.9V2.5H96.9v18.9h18.9v-6.3h10.6c-10.2,6.8-16.9,18.3-16.9,31.5H21.4     c-5.2,0-9.4,4.2-9.4,9.4v39.4c-2.9-2.4-5.3-1.8-6.2-1.4c-1,0.4-3.2,1.9-3.2,6.1v88.1c0,5.2,4.2,9.4,9.4,9.4h94.4     c4.1,0,5.5-2,6-3.3c0.5-1.2,0.8-3.7-2.2-6.5l-3-2.8h80.9c5.2,0,9.4-4.2,9.4-9.4V56c0-5.2-4.2-9.4-9.4-9.4h-3.1     c0-13.1-6.7-24.7-16.9-31.5h10.6v6.3L197.5,21.4L197.5,21.4z M184.9,8.8h6.3v6.3h-6.3V8.8z M109.4,15.1h-6.3V8.8h6.3V15.1z      M18.2,56c0-1.7,1.4-3.1,3.1-3.1H110c0,0,0,0,0.1,0c1.2,7.1,4.4,13.6,9.1,18.8H18.2L18.2,56L18.2,56z M11.9,191.2L11.9,191.2     c-1.7,0-3.1-1.4-3.1-3.1v-3.1h6.3v-6.3H8.8v-6.3h6.3V166H8.8v-6.3h6.3v-6.3H8.8v-6.3h6.3v-6.3H8.8v-6.3h6.3v-6.3H8.8V122h6.3     v-6.3H8.8V101l32.9,31l9.5,8.9l53.5,50.3L11.9,191.2L11.9,191.2z M30.8,113.1V90.6H100v44H53.7L30.8,113.1z M191.2,175.5     c0,1.7-1.4,3.1-3.1,3.1h-87.6l-40.1-37.7h45.9V84.3H24.5v22.9l-6.3-5.9V78h108.3c0.6,0.4,1.2,0.8,1.8,1.2v3.6     c-1.9,1.4-3.1,3.7-3.1,6.2c0,1.8,0.6,3.4,1.6,4.7c-1,1.3-1.6,2.9-1.6,4.7c0,4.3,3.5,7.9,7.9,7.9h28.3c4.3,0,7.9-3.5,7.9-7.9     c0-1.8-0.6-3.4-1.6-4.7c1-1.3,1.6-2.9,1.6-4.7c0-2.6-1.2-4.8-3.1-6.2v-3.6c0.6-0.4,1.2-0.8,1.8-1.2h23.4V175.5z M133,96.9h28.3     c0.9,0,1.6,0.7,1.6,1.6c0,0.9-0.7,1.6-1.6,1.6H133c-0.9,0-1.6-0.7-1.6-1.6C131.5,97.6,132.2,96.9,133,96.9z M131.5,89     c0-0.9,0.7-1.6,1.6-1.6h28.3c0.9,0,1.6,0.7,1.6,1.6c0,0.9-0.7,1.6-1.6,1.6H133C132.2,90.6,131.5,89.9,131.5,89z M184.4,52.8h3.7     c1.7,0,3.1,1.4,3.1,3.1v15.7h-16c4.6-5.1,7.8-11.5,9-18.4C184.3,53.2,184.4,53,184.4,52.8z M178.6,46.5c0,11.8-6.6,22.6-17.2,28     l-1.7,0.9v5.7h-9.4V58.7c5.4-1.4,9.4-6.3,9.4-12.1c0-6.9-5.6-12.6-12.6-12.6c-6.9,0-12.6,5.6-12.6,12.6c0,5.8,4,10.7,9.4,12.1     v22.5h-9.4v-5.7l-1.7-0.9c-10.6-5.4-17.2-16.1-17.2-28c0-17.3,14.1-31.5,31.5-31.5S178.6,29.2,178.6,46.5z M147.2,52.8     c-3.5,0-6.3-2.8-6.3-6.3c0-3.5,2.8-6.3,6.3-6.3c3.5,0,6.3,2.8,6.3,6.3C153.5,50,150.6,52.8,147.2,52.8z"/>
                                            <rect x="112.6" y="115.7" fill="#fff" width="72.3" height="6.3"/>
                                            <rect x="112.6" y="128.3" fill="#fff" width="72.3" height="6.3"/>
                                            <rect x="112.6" y="140.9" fill="#fff" width="72.3" height="6.3"/>
                                            <rect x="112.6" y="153.5" fill="#fff" width="72.3" height="6.3"/>
										</g>
									</g>
								</g>
								</svg>