<svg xmlns="http://www.w3.org/2000/svg" width="80" height="80" viewBox="0 0 64 64" fill="none">
    <g clip-path="url(#clip0)">
        <path fill-rule="evenodd" clip-rule="evenodd"
              d="M43.3047 1.85254V3.76955C43.3047 4.66605 42.9271 5.50625 42.5894 6.09135C43.2471 6.44648 43.7745 6.96213 44.1687 7.52822C44.8156 8.45713 45.155 9.58742 45.155 10.5795V10.5902L45.1548 10.6009C45.1158 12.4182 45.0378 13.7043 44.9685 14.5423C44.963 14.6082 44.9576 14.6713 44.9523 14.7317C45.4986 14.8612 46.3515 15.2174 46.6526 16.196L46.6709 16.2553L46.6816 16.3163C46.8158 17.0769 46.8286 17.7887 46.5827 18.5652C46.3474 19.3084 45.8983 20.0344 45.2588 20.8737L45.234 20.9062L45.2067 20.9366L45.203 20.9407L45.1952 20.9492L45.168 20.9789C45.1449 21.0041 45.1117 21.0399 45.0696 21.0846C44.9855 21.1739 44.8653 21.2992 44.7176 21.447C44.4916 21.6729 44.1962 21.9565 43.8632 22.246C43.4278 25.3035 42.1206 28.0658 40.2209 30.1091V32.3528C40.2209 32.7004 40.1987 33.0428 40.1555 33.3787C41.2188 33.6143 41.9281 33.8806 42.4066 34.1303C42.6221 34.2427 42.7951 34.354 42.9344 34.461C48.9605 34.6309 54.0445 38.5658 55.9328 44H58C60.7614 44 63 46.2386 63 49V59C63 61.7614 60.7614 64 58 64L28 64H13C12.6052 64 12.221 63.9542 11.8525 63.8677C8.33048 64.8162 4.62589 62.8861 3.42051 59.3854L0.490393 50.8757C-0.662052 47.5288 0.869598 43.9067 3.94224 42.3531C3.28621 39.0784 4.69698 35.9587 7.19539 34.2931C9.84012 32.53 13.5581 32.4754 17.1098 35.2076C17.1639 35.2491 17.2174 35.2912 17.2704 35.3337C18.6833 34.81 20.2023 34.5054 21.7864 34.4609C21.9294 34.3464 22.1121 34.2198 22.344 34.0887C22.8072 33.8267 23.4664 33.5463 24.4002 33.3042C24.3631 32.9922 24.344 32.6747 24.344 32.3528V30.039C22.6245 28.0799 21.4826 25.4443 21.125 22.4176L21.1135 22.402L21.0992 22.3834C21.02 22.282 20.8965 22.1514 20.7261 21.9861C20.6532 21.9153 20.5659 21.8334 20.4715 21.7449L20.4715 21.7448C20.203 21.493 19.8769 21.1869 19.6582 20.9275C19.3891 20.6338 19.0009 20.1344 18.68 19.5158C18.3552 18.8897 18.0583 18.0624 18.1005 17.1627C18.1484 16.1395 18.6829 15.4463 19.3041 15.0565C19.4686 14.9533 19.6428 14.8689 19.8196 14.8033L19.5642 10.6099V10.5795C19.5642 9.09521 20.1242 7.82965 21.1047 6.94341C21.8894 6.23417 22.8982 5.80751 24.0058 5.67049C24.0819 5.45003 24.1873 5.19972 24.3331 4.93499C24.8033 4.0812 25.6723 3.11985 27.2226 2.52706L27.2752 2.50692L27.3298 2.49283C31.1727 1.50112 34.2348 2.2149 36.6321 2.81912L36.8685 2.87879C37.9817 3.16008 38.873 3.3853 39.6802 3.43911C40.4974 3.4936 41.1397 3.36306 41.7325 2.94942L43.3047 1.85254ZM15.1955 36.301C12.5086 34.5622 10.0136 34.818 8.30479 35.9572C6.53748 37.1354 5.48155 39.3304 5.85817 41.7084C7.15243 41.4717 8.45206 41.6118 9.62532 42.0645C10.893 39.6502 12.8327 37.6456 15.1955 36.301ZM16.8714 37.6777C17.8429 38.6928 18.6369 39.9618 19.4358 41.4185C19.7036 41.9069 19.9735 42.4199 20.2513 42.948C20.5015 43.4237 20.7582 43.9116 21.0257 44.4049C19.2461 45.1705 18 46.9398 18 49V59C18 60.1256 18.3719 61.1644 18.9996 62H15.0465C16.8355 60.1665 17.5487 57.4147 16.6578 54.8274L13.7277 46.3178C13.2627 44.9674 12.4258 43.8507 11.371 43.0428C12.5796 40.7149 14.5133 38.8264 16.8714 37.6777ZM23.0844 44C22.7357 43.3726 22.4035 42.7412 22.0708 42.1088L22.0707 42.1087C21.7811 41.5582 21.4911 41.007 21.1894 40.4569C20.5088 39.2158 19.7746 37.9948 18.8699 36.9145C19.9259 36.6153 21.04 36.4553 22.1913 36.4553H22.717L22.9842 36.0671L22.995 36.0571C23.0367 36.0197 23.1384 35.9371 23.3285 35.8296C23.6153 35.6674 24.1028 35.4488 24.8846 35.2447C26.0387 38.2086 28.9144 40.3101 32.2825 40.3101C35.6235 40.3101 38.4801 38.2421 39.6522 35.3158C40.6346 35.5286 41.1884 35.7505 41.4814 35.9034C41.598 35.9642 41.6691 36.0119 41.7075 36.0406L41.9317 36.4553H42.5278C47.6059 36.4553 51.9611 39.5697 53.7936 44H23.0844ZM26.344 31.8289V32.3528C26.344 35.6454 29.0053 38.3101 32.2825 38.3101C35.5596 38.3101 38.2209 35.6454 38.2209 32.3528V31.8384C36.5154 33.0045 34.5211 33.6798 32.3596 33.6798C30.0935 33.6798 28.0512 33.0115 26.344 31.8289ZM20.7028 16.6331C20.6855 16.6348 20.6595 16.6382 20.6252 16.6458C20.5408 16.6645 20.4484 16.6996 20.3671 16.7506C20.2885 16.7999 20.2291 16.8583 20.1875 16.9254C20.1482 16.9888 20.1061 17.0895 20.0983 17.2564C20.0788 17.6724 20.2187 18.1387 20.4554 18.5948C20.6885 19.0443 20.976 19.4073 21.1432 19.5877L21.1624 19.6084L21.1804 19.6302C21.3139 19.7916 21.4966 19.9628 21.7281 20.1798L21.7282 20.1798L21.7282 20.1798L21.7285 20.1801L21.7286 20.1802L21.7289 20.1805L21.7291 20.1807C21.8466 20.2908 21.9766 20.4126 22.1191 20.551C22.304 20.7305 22.5083 20.9385 22.6751 21.1518C22.8158 21.332 23.0532 21.6653 23.0999 22.0843C23.7507 27.9258 27.5577 31.6798 32.3596 31.6798C37.1194 31.6798 41.2479 27.4482 41.9282 21.6166L41.9751 21.2148L42.2882 20.9586C42.678 20.6396 43.038 20.2981 43.3033 20.0328C43.435 19.9011 43.5413 19.7903 43.6138 19.7133L43.6551 19.6692L43.6944 19.6268C44.2704 18.8668 44.5472 18.3683 44.6761 17.9614C44.7883 17.607 44.8069 17.2633 44.7301 16.7722L44.7271 16.7699L44.7193 16.7644C44.6759 16.7352 44.5907 16.6976 44.4557 16.67C44.3257 16.6434 44.1915 16.6345 44.0843 16.6336C44.0712 16.6335 44.0588 16.6335 44.0472 16.6336L42.6096 17.1607L42.6074 17.1899C42.5953 17.3354 42.5956 17.5017 42.5962 17.7351V17.7353L42.5964 17.8983C42.5964 18.1949 42.592 18.5571 42.5455 18.9347C42.4509 19.7038 42.1718 20.6114 41.3407 21.3318C40.8589 21.7493 40.2248 21.9585 39.6517 22.0679C39.0579 22.1812 38.4135 22.2088 37.8087 22.1822C37.2024 22.1557 36.6025 22.0732 36.0912 21.9489C35.6341 21.8378 35.0735 21.6538 34.7019 21.3235L34.6728 21.2977L34.6459 21.2697C34.2678 20.8771 33.7244 20.219 33.2842 19.477C33.0301 19.0486 32.7652 18.5184 32.6199 17.9527H32.335C32.1898 18.5184 31.9248 19.0486 31.6707 19.477C31.2305 20.219 30.6871 20.8771 30.309 21.2697L30.2821 21.2977L30.253 21.3235C29.8814 21.6538 29.3208 21.8378 28.8637 21.9489C28.3524 22.0732 27.7525 22.1557 27.1462 22.1822C26.5414 22.2088 25.897 22.1812 25.3032 22.0679C24.7301 21.9585 24.096 21.7493 23.6142 21.3318C22.7831 20.6114 22.504 19.7038 22.4094 18.9347C22.3629 18.5571 22.3585 18.1949 22.3585 17.8983L22.3587 17.7353V17.7353C22.3593 17.5018 22.3596 17.3355 22.3475 17.1899C22.3448 17.1578 22.3428 17.1258 22.3415 17.094L20.7028 16.6331ZM42.9263 14.9144L41.9483 15.273C41.9119 15.2299 41.8746 15.1883 41.8368 15.1482C41.3751 14.6593 40.6848 14.2566 39.9148 14.2566H39.9141H39.914C39.5474 14.2566 38.5759 14.2566 37.5686 14.276C36.6274 14.2942 35.5697 14.3302 34.9739 14.4125C34.5669 14.4288 34.0378 14.5649 33.5645 14.9156C33.2259 15.1664 32.938 15.5113 32.7478 15.9527H32.2071C32.0169 15.5113 31.729 15.1664 31.3904 14.9156C30.9171 14.5649 30.388 14.4288 29.981 14.4125C29.3852 14.3302 28.3275 14.2942 27.3863 14.276C26.379 14.2566 25.4075 14.2566 25.0409 14.2566H25.0408H25.0401C24.2701 14.2566 23.5798 14.6593 23.1182 15.1482C23.0969 15.1707 23.0759 15.1936 23.055 15.2171L21.8275 14.8719L21.5643 10.5508C21.5712 9.60831 21.9176 8.90456 22.4458 8.42717C22.9901 7.93523 23.7981 7.62197 24.8043 7.62197H25.7354L25.801 6.7043C25.8015 6.69983 25.8026 6.69113 25.8046 6.67859C25.8095 6.64654 25.8195 6.5902 25.8386 6.51535C25.8768 6.36492 25.9496 6.14562 26.085 5.89981C26.343 5.43137 26.8494 4.82447 27.8858 4.415C31.1863 3.57757 33.8126 4.17103 36.1433 4.75847L36.4278 4.83044C37.482 5.09765 38.549 5.36814 39.5471 5.43468C39.9173 5.45936 40.2871 5.45704 40.6544 5.4169C40.5637 5.55248 40.4779 5.66908 40.4076 5.76C40.3551 5.82798 40.3122 5.88031 40.284 5.91404C40.2699 5.93088 40.2595 5.94298 40.2534 5.94998L40.2483 5.95582L40.2473 5.95691L38.9564 7.39975L40.8827 7.61577C41.564 7.69219 42.119 8.08453 42.5275 8.67113C42.943 9.26782 43.1526 9.99569 43.155 10.5696C43.1167 12.344 43.0408 13.5855 42.9753 14.3776C42.9579 14.5877 42.9413 14.7661 42.9263 14.9144ZM29.745 16.3991C29.3233 16.3343 28.3646 16.2953 27.3477 16.2757C26.3607 16.2566 25.4054 16.2566 25.0401 16.2566C24.9621 16.2566 24.7658 16.3164 24.5722 16.5214C24.3832 16.7215 24.3317 16.9172 24.3406 17.0238C24.3606 17.2635 24.3596 17.5358 24.3588 17.7696L24.3585 17.8983C24.3585 18.1823 24.3638 18.4416 24.3944 18.6904C24.4539 19.1741 24.5988 19.5385 24.9241 19.8204C25.0205 19.904 25.2538 20.0224 25.6781 20.1034C26.0817 20.1804 26.5648 20.2058 27.0586 20.1842C27.5509 20.1626 28.0206 20.0956 28.3911 20.0055C28.7132 19.9272 28.8676 19.8533 28.9127 19.8318L28.9196 19.8285C29.2088 19.5197 29.6218 19.0108 29.9506 18.4565C30.3247 17.8259 30.4719 17.332 30.4439 17.0522C30.4099 16.712 30.2825 16.5838 30.2 16.5227C30.0821 16.4354 29.9433 16.4108 29.8971 16.4108H29.8206L29.745 16.3991ZM35.2099 16.3991C35.6316 16.3343 36.5903 16.2953 37.6072 16.2757C38.5942 16.2566 39.5495 16.2566 39.9148 16.2566C39.9928 16.2566 40.1891 16.3164 40.3827 16.5214C40.5717 16.7215 40.6232 16.9172 40.6143 17.0238C40.5943 17.2634 40.5953 17.5357 40.5961 17.7694V17.7696L40.5964 17.8983C40.5964 18.1823 40.5911 18.4416 40.5605 18.6904C40.501 19.1741 40.3561 19.5385 40.0308 19.8204C39.9344 19.904 39.7011 20.0224 39.2768 20.1034C38.8732 20.1804 38.3902 20.2058 37.8963 20.1842C37.404 20.1626 36.9343 20.0956 36.5638 20.0055C36.2417 19.9272 36.0873 19.8533 36.0422 19.8318L36.0353 19.8285C35.7461 19.5197 35.3331 19.0108 35.0043 18.4565C34.6302 17.8259 34.483 17.332 34.511 17.0522C34.545 16.712 34.6724 16.5838 34.7549 16.5227C34.8728 16.4354 35.0116 16.4108 35.0578 16.4108H35.1343L35.2099 16.3991ZM14.7667 55.4786L11.8366 46.9689C11.0491 44.6817 8.76799 43.3331 6.45926 43.6381L8.38011 49.2167C8.55992 49.7389 8.28235 50.308 7.76016 50.4878C7.23796 50.6676 6.66888 50.39 6.48907 49.8678L4.56823 44.2893C2.56115 45.4703 1.59389 47.9374 2.38143 50.2246L5.31154 58.7342C6.21057 61.3452 9.056 62.733 11.667 61.834C14.278 60.935 15.6658 58.0895 14.7667 55.4786ZM23 46H58C59.6568 46 61 47.3431 61 49V59C61 60.6569 59.6568 62 58 62H23C21.3431 62 20 60.6569 20 59V49C20 47.3431 21.3431 46 23 46ZM23 58C22.4477 58 22 58.4477 22 59C22 59.5523 22.4477 60 23 60H24C24.5523 60 25 59.5523 25 59C25 58.4477 24.5523 58 24 58H23ZM56 59C56 58.4477 56.4477 58 57 58H58C58.5523 58 59 58.4477 59 59C59 59.5523 58.5523 60 58 60H57C56.4477 60 56 59.5523 56 59ZM53 58C52.4477 58 52 58.4477 52 59C52 59.5523 52.4477 60 53 60H54C54.5523 60 55 59.5523 55 59C55 58.4477 54.5523 58 54 58H53ZM52 56C52 55.4477 52.4477 55 53 55H54C54.5523 55 55 55.4477 55 56C55 56.5523 54.5523 57 54 57H53C52.4477 57 52 56.5523 52 56ZM53 52C52.4477 52 52 52.4477 52 53C52 53.5523 52.4477 54 53 54H54C54.5523 54 55 53.5523 55 53C55 52.4477 54.5523 52 54 52H53ZM56 53C56 52.4477 56.4477 52 57 52H58C58.5523 52 59 52.4477 59 53C59 53.5523 58.5523 54 58 54H57C56.4477 54 56 53.5523 56 53ZM49 52C48.4477 52 48 52.4477 48 53C48 53.5523 48.4477 54 49 54H50C50.5523 54 51 53.5523 51 53C51 52.4477 50.5523 52 50 52H49ZM48 56C48 55.4477 48.4477 55 49 55H50C50.5523 55 51 55.4477 51 56C51 56.5523 50.5523 57 50 57H49C48.4477 57 48 56.5523 48 56ZM57 55C56.4477 55 56 55.4477 56 56C56 56.5523 56.4477 57 57 57H58C58.5523 57 59 56.5523 59 56C59 55.4477 58.5523 55 58 55H57ZM26 56C26 55.4477 26.4477 55 27 55H28C28.5523 55 29 55.4477 29 56C29 56.5523 28.5523 57 28 57H27C26.4477 57 26 56.5523 26 56ZM31 55C30.4477 55 30 55.4477 30 56C30 56.5523 30.4477 57 31 57H32C32.5523 57 33 56.5523 33 56C33 55.4477 32.5523 55 32 55H31ZM22 56C22 55.4477 22.4477 55 23 55H24C24.5523 55 25 55.4477 25 56C25 56.5523 24.5523 57 24 57H23C22.4477 57 22 56.5523 22 56ZM39 55C38.4477 55 38 55.4477 38 56C38 56.5523 38.4477 57 39 57H40C40.5523 57 41 56.5523 41 56C41 55.4477 40.5523 55 40 55H39ZM42 56C42 55.4477 42.4477 55 43 55H44C44.5523 55 45 55.4477 45 56C45 56.5523 44.5523 57 44 57H43C42.4477 57 42 56.5523 42 56ZM35 55C34.4477 55 34 55.4477 34 56C34 56.5523 34.4477 57 35 57H36C36.5523 57 37 56.5523 37 56C37 55.4477 36.5523 55 36 55H35ZM26 53C26 52.4477 26.4477 52 27 52H28C28.5523 52 29 52.4477 29 53C29 53.5523 28.5523 54 28 54H27C26.4477 54 26 53.5523 26 53ZM31 52C30.4477 52 30 52.4477 30 53C30 53.5523 30.4477 54 31 54H32C32.5523 54 33 53.5523 33 53C33 52.4477 32.5523 52 32 52H31ZM22 53C22 52.4477 22.4477 52 23 52H24C24.5523 52 25 52.4477 25 53C25 53.5523 24.5523 54 24 54H23C22.4477 54 22 53.5523 22 53ZM39 52C38.4477 52 38 52.4477 38 53C38 53.5523 38.4477 54 39 54H40C40.5523 54 41 53.5523 41 53C41 52.4477 40.5523 52 40 52H39ZM42 53C42 52.4477 42.4477 52 43 52H44C44.5523 52 45 52.4477 45 53C45 53.5523 44.5523 54 44 54H43C42.4477 54 42 53.5523 42 53ZM35 52C34.4477 52 34 52.4477 34 53C34 53.5523 34.4477 54 35 54H36C36.5523 54 37 53.5523 37 53C37 52.4477 36.5523 52 36 52H35ZM26 49C26 48.4477 26.4477 48 27 48H28C28.5523 48 29 48.4477 29 49C29 49.5523 28.5523 50 28 50H27C26.4477 50 26 49.5523 26 49ZM31 48C30.4477 48 30 48.4477 30 49C30 49.5523 30.4477 50 31 50H32C32.5523 50 33 49.5523 33 49C33 48.4477 32.5523 48 32 48H31ZM22 49C22 48.4477 22.4477 48 23 48H24C24.5523 48 25 48.4477 25 49C25 49.5523 24.5523 50 24 50H23C22.4477 50 22 49.5523 22 49ZM39 48C38.4477 48 38 48.4477 38 49C38 49.5523 38.4477 50 39 50H40C40.5523 50 41 49.5523 41 49C41 48.4477 40.5523 48 40 48H39ZM42 49C42 48.4477 42.4477 48 43 48H44C44.5523 48 45 48.4477 45 49C45 49.5523 44.5523 50 44 50H43C42.4477 50 42 49.5523 42 49ZM35 48C34.4477 48 34 48.4477 34 49C34 49.5523 34.4477 50 35 50H36C36.5523 50 37 49.5523 37 49C37 48.4477 36.5523 48 36 48H35ZM52 49C52 48.4477 52.4477 48 53 48H54C54.5523 48 55 48.4477 55 49C55 49.5523 54.5523 50 54 50H53C52.4477 50 52 49.5523 52 49ZM57 48C56.4477 48 56 48.4477 56 49C56 49.5523 56.4477 50 57 50H58C58.5523 50 59 49.5523 59 49C59 48.4477 58.5523 48 58 48H57ZM48 49C48 48.4477 48.4477 48 49 48H50C50.5523 48 51 48.4477 51 49C51 49.5523 50.5523 50 50 50H49C48.4477 50 48 49.5523 48 49ZM49 58C48.4477 58 48 58.4477 48 59C48 59.5523 48.4477 60 49 60H50C50.5523 60 51 59.5523 51 59C51 58.4477 50.5523 58 50 58H49ZM42 59C42 58.4477 42.4477 58 43 58H44C44.5523 58 45 58.4477 45 59C45 59.5523 44.5523 60 44 60H43C42.4477 60 42 59.5523 42 59ZM27 58C26.4477 58 26 58.4477 26 59C26 59.5523 26.4477 60 27 60H40C40.5523 60 41 59.5523 41 59C41 58.4477 40.5523 58 40 58H27Z"
              fill="#3098f3"/>
    </g>
    <defs>
        <clipPath id="clip0">
            <rect width="64" height="64" fill="white"/>
        </clipPath>
    </defs>
</svg>