<svg xmlns="http://www.w3.org/2000/svg" width="80" height="80" viewBox="0 0 64 64" fill="none">
    <g clip-path="url(#clip0)">
        <path fill-rule="evenodd" clip-rule="evenodd"
              d="M43.3047 1.85254V3.76955C43.3047 4.66605 42.9271 5.50625 42.5893 6.09135C43.2471 6.44648 43.7745 6.96213 44.1687 7.52822C44.8155 8.45713 45.1549 9.58742 45.1549 10.5795V10.5902L45.1547 10.6009C45.1158 12.4182 45.0377 13.7043 44.9684 14.5423C44.963 14.6082 44.9576 14.6713 44.9523 14.7317C45.4986 14.8612 46.3515 15.2174 46.6526 16.196L46.6708 16.2553L46.6816 16.3163C46.8158 17.0769 46.8286 17.7887 46.5827 18.5652C46.3473 19.3084 45.8982 20.0344 45.2587 20.8737L45.234 20.9062L45.2066 20.9366L45.2029 20.9407L45.1952 20.9492L45.168 20.9789C45.1448 21.0041 45.1117 21.0399 45.0696 21.0846C44.9855 21.1739 44.8653 21.2992 44.7175 21.447C44.4916 21.6729 44.1962 21.9565 43.8632 22.246C43.4278 25.3034 42.1206 28.0658 40.2209 30.1091V32.3528C40.2209 32.7004 40.1987 33.0428 40.1555 33.3787C41.2188 33.6143 41.9281 33.8806 42.4066 34.1303C42.6221 34.2427 42.7951 34.354 42.9344 34.461C45.1153 34.5225 47.1727 35.0771 49 36.0174V36C49 34.8954 49.8954 34 51 34H61C62.1046 34 63 34.8954 63 36V46C63 47.1046 62.1046 48 61 48H56.7031C56.7126 48.2024 56.7179 48.4059 56.7189 48.6105L56.913 50H57C58.1046 50 59 50.8954 59 52V62C59 63.1046 58.1046 64 57 64H49.3333L49.3334 64H24.0001C23.9998 64.3228 23.8435 64.6395 23.5547 64.8321C23.0952 65.1384 22.4743 65.0142 22.1679 64.5547L21.7982 64H11.5975C9.592 64 7.89226 62.829 7.09027 61.1674L4.83205 64.5547C4.5257 65.0142 3.90483 65.1384 3.4453 64.8321C2.98577 64.5257 2.8616 63.9048 3.16795 63.4453L6.13148 59H4C3.44772 59 3 58.5523 3 58C3 57.4477 3.44772 57 4 57H6.82834L6.96801 56H2C0.895431 56 0 55.1046 0 54V37C0 35.8954 0.895431 35 2 35H12V34.5C12 33.6716 12.6716 33 13.5 33C14.3284 33 15 33.6716 15 34.5V35H18.2882C19.4041 34.6807 20.5762 34.4949 21.7864 34.4609C21.9294 34.3464 22.1121 34.2198 22.344 34.0887C22.8072 33.8267 23.4664 33.5463 24.4001 33.3042C24.363 32.9922 24.344 32.6747 24.344 32.3528V30.039C22.6244 28.08 21.4826 25.4443 21.125 22.4176L21.1131 22.4016L21.0992 22.3834C21.0199 22.282 20.8964 22.1514 20.7261 21.9861C20.6531 21.9153 20.5659 21.8334 20.4715 21.7449L20.4715 21.7448C20.203 21.493 19.8768 21.1869 19.6581 20.9275C19.389 20.6338 19.0009 20.1344 18.68 19.5158C18.3551 18.8897 18.0582 18.0624 18.1004 17.1627C18.1484 16.1395 18.6829 15.4463 19.304 15.0565C19.4685 14.9533 19.6428 14.8689 19.8195 14.8033L19.5641 10.6099V10.5795C19.5641 9.09521 20.1241 7.82965 21.1047 6.94341C21.8894 6.23417 22.8982 5.80751 24.0058 5.67049C24.0819 5.45003 24.1873 5.19972 24.3331 4.93499C24.8033 4.0812 25.6723 3.11985 27.2225 2.52706L27.2752 2.50692L27.3298 2.49283C31.1727 1.50112 34.2348 2.2149 36.6321 2.81912L36.8684 2.87879C37.9817 3.16008 38.873 3.3853 39.6801 3.43911C40.4974 3.4936 41.1396 3.36306 41.7325 2.94942L43.3047 1.85254ZM45 52C45 50.8954 45.8954 50 47 50H54.8936L54.7191 48.7507V48.6812C54.7191 48.4526 54.7128 48.2255 54.7005 48H51C49.8954 48 49 47.1046 49 46V42H47V49C47 49.5523 46.5523 50 46 50H44V54C44 55.1046 43.1046 56 42 56H32C30.8954 56 30 55.1046 30 54V44C30 42.8954 30.8954 42 32 42H42C43.1046 42 44 42.8954 44 44V48H45V41C45 40.4477 45.4477 40 46 40H49V38.3186C47.1242 37.1379 44.9052 36.4553 42.5278 36.4553H41.9317L41.7075 36.0406C41.6691 36.0119 41.598 35.9642 41.4814 35.9034C41.1883 35.7505 40.6346 35.5286 39.6522 35.3158C38.4801 38.2421 35.6235 40.3101 32.2824 40.3101C30.2533 40.3101 28.4029 39.5473 27 38.2928V54C27 55.1046 26.1046 56 25 56H8.98743L8.84775 57H13.5H19H19.5352H23C23.5523 57 24 57.4477 24 58C24 58.5523 23.5523 59 23 59H20.8685L22.8685 62L45 62V52ZM13.5 59H18.4648L20.4648 62H11.5975C9.91671 62 8.59386 60.6291 8.59698 59H13.5ZM13.5 37H2V54H25V37H13.5ZM26.344 31.829V32.3528C26.344 35.6454 29.0053 38.3101 32.2824 38.3101C35.5596 38.3101 38.2209 35.6454 38.2209 32.3528V31.8384C36.5154 33.0045 34.521 33.6798 32.3595 33.6798C30.0935 33.6798 28.0512 33.0115 26.344 31.829ZM20.7027 16.6331C20.6855 16.6348 20.6595 16.6382 20.6252 16.6458C20.5407 16.6645 20.4483 16.6996 20.3671 16.7506C20.2884 16.7999 20.229 16.8583 20.1874 16.9254C20.1482 16.9888 20.106 17.0895 20.0982 17.2564C20.0787 17.6724 20.2187 18.1387 20.4553 18.5948C20.6885 19.0443 20.9759 19.4073 21.1432 19.5877L21.1624 19.6084L21.1804 19.6302C21.3139 19.7916 21.4966 19.9628 21.7281 20.1798L21.7281 20.1798L21.7282 20.1798L21.7285 20.1801L21.7285 20.1802L21.7289 20.1805L21.7291 20.1807C21.8465 20.2908 21.9765 20.4126 22.119 20.551C22.304 20.7305 22.5083 20.9385 22.675 21.1518C22.8158 21.332 23.0532 21.6653 23.0998 22.0843C23.7506 27.9258 27.5577 31.6798 32.3595 31.6798C37.1193 31.6798 41.2478 27.4482 41.9282 21.6166L41.975 21.2148L42.2882 20.9586C42.678 20.6396 43.038 20.2981 43.3032 20.0328C43.435 19.9011 43.5412 19.7903 43.6137 19.7133C43.649 19.6758 43.6762 19.6464 43.6943 19.6268C44.2703 18.8668 44.5471 18.3683 44.676 17.9614C44.7882 17.607 44.8069 17.2633 44.7301 16.7722C44.7272 16.7699 44.7236 16.7673 44.7192 16.7644C44.6758 16.7352 44.5907 16.6976 44.4556 16.67C44.3257 16.6434 44.1914 16.6345 44.0842 16.6336L44.0665 16.6335L44.0471 16.6336L42.6096 17.1607L42.6074 17.1899C42.5952 17.3354 42.5956 17.5017 42.5961 17.7351V17.7353L42.5964 17.8983C42.5964 18.1949 42.592 18.5571 42.5455 18.9347C42.4509 19.7038 42.1718 20.6114 41.3406 21.3318C40.8589 21.7493 40.2248 21.9585 39.6517 22.0679C39.0578 22.1812 38.4134 22.2088 37.8087 22.1822C37.2024 22.1557 36.6025 22.0732 36.0912 21.9489C35.6341 21.8378 35.0735 21.6538 34.7018 21.3235L34.6728 21.2977L34.6459 21.2697C34.2678 20.8771 33.7244 20.219 33.2842 19.477C33.0301 19.0486 32.7651 18.5184 32.6199 17.9527H32.335C32.1897 18.5184 31.9247 19.0486 31.6706 19.477C31.2304 20.219 30.6871 20.8771 30.309 21.2697L30.282 21.2977L30.253 21.3235C29.8814 21.6538 29.3207 21.8378 28.8637 21.9489C28.3524 22.0732 27.7524 22.1557 27.1462 22.1822C26.5414 22.2088 25.897 22.1812 25.3032 22.0679C24.73 21.9585 24.096 21.7493 23.6142 21.3318C22.7831 20.6114 22.504 19.7038 22.4093 18.9347C22.3629 18.5571 22.3585 18.1949 22.3585 17.8983L22.3587 17.7353V17.7353C22.3592 17.5018 22.3596 17.3355 22.3475 17.1899C22.3448 17.1578 22.3428 17.1258 22.3415 17.094L20.7027 16.6331ZM42.9262 14.9144L41.9483 15.273C41.9118 15.2299 41.8746 15.1883 41.8367 15.1482C41.375 14.6593 40.6847 14.2566 39.9148 14.2566H39.9141H39.914C39.5474 14.2566 38.5759 14.2566 37.5685 14.276C36.6273 14.2942 35.5697 14.3302 34.9739 14.4125C34.5669 14.4288 34.0378 14.5649 33.5644 14.9156C33.2259 15.1664 32.938 15.5113 32.7477 15.9527H32.2071C32.0169 15.5113 31.729 15.1664 31.3904 14.9156C30.9171 14.5649 30.388 14.4288 29.981 14.4125C29.3852 14.3302 28.3275 14.2942 27.3863 14.276C26.379 14.2566 25.4075 14.2566 25.0409 14.2566H25.0408H25.0401C24.2701 14.2566 23.5798 14.6593 23.1181 15.1482C23.0969 15.1707 23.0758 15.1936 23.055 15.2171L21.8274 14.8719L21.5642 10.5508C21.5711 9.60831 21.9175 8.90456 22.4457 8.42717C22.99 7.93523 23.7981 7.62197 24.8043 7.62197H25.7354L25.8009 6.7043C25.8014 6.70071 25.8022 6.6944 25.8035 6.68556L25.8045 6.67859C25.8094 6.64654 25.8195 6.5902 25.8385 6.51535C25.8768 6.36492 25.9496 6.14562 26.085 5.89981C26.343 5.43137 26.8493 4.82447 27.8858 4.415C31.1862 3.57757 33.8125 4.17103 36.1433 4.75847L36.4277 4.83044C37.4819 5.09765 38.549 5.36814 39.5471 5.43468C39.9173 5.45936 40.2871 5.45704 40.6544 5.4169C40.5636 5.55248 40.4778 5.66908 40.4076 5.76C40.355 5.82798 40.3122 5.88031 40.2839 5.91404L40.2669 5.9342L40.2534 5.94998L40.2483 5.95582L40.2473 5.95691L38.9563 7.39975L40.8826 7.61577C41.564 7.69219 42.1189 8.08453 42.5274 8.67113C42.9429 9.26782 43.1526 9.99569 43.1549 10.5696C43.1167 12.344 43.0407 13.5855 42.9752 14.3776C42.9579 14.5877 42.9412 14.7661 42.9262 14.9144ZM29.745 16.3991C29.3233 16.3343 28.3645 16.2953 27.3477 16.2757C26.3607 16.2566 25.4054 16.2566 25.0401 16.2566C24.9621 16.2566 24.7658 16.3164 24.5721 16.5214C24.3831 16.7215 24.3317 16.9172 24.3406 17.0238C24.3605 17.2635 24.3596 17.5358 24.3588 17.7696L24.3585 17.8983C24.3585 18.1823 24.3637 18.4416 24.3944 18.6904C24.4539 19.1741 24.5988 19.5385 24.9241 19.8204C25.0205 19.904 25.2538 20.0224 25.6781 20.1034C26.0816 20.1804 26.5647 20.2058 27.0586 20.1842C27.5509 20.1626 28.0206 20.0956 28.3911 20.0055C28.7131 19.9272 28.8676 19.8533 28.9126 19.8318L28.9195 19.8285C29.2088 19.5197 29.6218 19.0108 29.9506 18.4565C30.3246 17.8259 30.4719 17.332 30.4439 17.0522C30.4099 16.712 30.2824 16.5838 30.1999 16.5227C30.0821 16.4354 29.9433 16.4108 29.897 16.4108H29.8206L29.745 16.3991ZM35.2099 16.3991C35.6315 16.3343 36.5903 16.2953 37.6072 16.2757C38.5942 16.2566 39.5494 16.2566 39.9147 16.2566C39.9928 16.2566 40.1891 16.3164 40.3827 16.5214C40.5717 16.7215 40.6232 16.9172 40.6143 17.0238C40.5943 17.2634 40.5953 17.5357 40.5961 17.7694V17.7696L40.5964 17.8983C40.5964 18.1823 40.5911 18.4416 40.5605 18.6904C40.501 19.1741 40.356 19.5385 40.0308 19.8204C39.9343 19.904 39.7011 20.0224 39.2768 20.1034C38.8732 20.1804 38.3901 20.2058 37.8963 20.1842C37.404 20.1626 36.9342 20.0956 36.5638 20.0055C36.2417 19.9272 36.0873 19.8533 36.0422 19.8318L36.0353 19.8285C35.7461 19.5197 35.3331 19.0108 35.0043 18.4565C34.6302 17.8259 34.483 17.332 34.511 17.0522C34.545 16.712 34.6724 16.5838 34.7549 16.5227C34.8727 16.4354 35.0115 16.4108 35.0578 16.4108H35.1343L35.2099 16.3991ZM5 39C4.44772 39 4 39.4477 4 40C4 40.5523 4.44772 41 5 41H8C8.55228 41 9 40.5523 9 40C9 39.4477 8.55228 39 8 39H5ZM4 43C4 42.4477 4.44772 42 5 42C5.55228 42 6 42.4477 6 43C6 43.5523 5.55228 44 5 44C4.44772 44 4 43.5523 4 43ZM8 42C7.44772 42 7 42.4477 7 43C7 43.5523 7.44772 44 8 44C8.55228 44 9 43.5523 9 43C9 42.4477 8.55228 42 8 42ZM4 46C4 45.4477 4.44772 45 5 45C5.55228 45 6 45.4477 6 46C6 46.5523 5.55228 47 5 47C4.44772 47 4 46.5523 4 46ZM8 45C7.44772 45 7 45.4477 7 46C7 46.5523 7.44772 47 8 47C8.55228 47 9 46.5523 9 46C9 45.4477 8.55228 45 8 45ZM11 43C11 42.4477 11.4477 42 12 42C12.5523 42 13 42.4477 13 43C13 43.5523 12.5523 44 12 44C11.4477 44 11 43.5523 11 43ZM15 42C14.4477 42 14 42.4477 14 43C14 43.5523 14.4477 44 15 44C15.5523 44 16 43.5523 16 43C16 42.4477 15.5523 42 15 42ZM11 46C11 45.4477 11.4477 45 12 45C12.5523 45 13 45.4477 13 46C13 46.5523 12.5523 47 12 47C11.4477 47 11 46.5523 11 46ZM19 42C18.4477 42 18 42.4477 18 43C18 43.5523 18.4477 44 19 44C19.5523 44 20 43.5523 20 43C20 42.4477 19.5523 42 19 42ZM21 43C21 42.4477 21.4477 42 22 42C22.5523 42 23 42.4477 23 43C23 43.5523 22.5523 44 22 44C21.4477 44 21 43.5523 21 43ZM5 48C4.44772 48 4 48.4477 4 49C4 49.5523 4.44772 50 5 50C5.55228 50 6 49.5523 6 49C6 48.4477 5.55228 48 5 48ZM11 40C11 39.4477 11.4477 39 12 39H15C15.5523 39 16 39.4477 16 40C16 40.5523 15.5523 41 15 41H12C11.4477 41 11 40.5523 11 40ZM18 40C18 39.4477 18.4477 39 19 39H22C22.5523 39 23 39.4477 23 40C23 40.5523 22.5523 41 22 41H19C18.4477 41 18 40.5523 18 40ZM32 44H42V48V50V54H32V44ZM40.8575 46.5145C41.1416 46.0409 40.9881 45.4267 40.5145 45.1425C40.0409 44.8584 39.4267 45.0119 39.1425 45.4855L36.2824 50.2523L34.7809 48.3753C34.4359 47.944 33.8066 47.8741 33.3753 48.2191C32.944 48.5641 32.8741 49.1934 33.2191 49.6247L35.6191 52.6247C35.8237 52.8804 36.1404 53.0197 36.4671 52.9977C36.7938 52.9758 37.089 52.7953 37.2575 52.5145L40.8575 46.5145ZM61 36H51V46H61V36ZM47 52H57V62H47V52ZM53.3955 57.2909C53.7684 56.8368 54 56.2022 54 55.5C54 54.1193 53.1046 53 52 53C50.8954 53 50 54.1193 50 55.5C50 56.2022 50.2316 56.8368 50.6045 57.2909C49.6505 57.7038 49 58.4828 49 59.1412C49 60.0105 50.1339 60.0054 51.6033 59.9989C51.7331 59.9983 51.8655 59.9977 52 59.9977C52.1345 59.9977 52.2669 59.9983 52.3967 59.9989C53.8661 60.0054 55 60.0105 55 59.1412C55 58.4828 54.3495 57.7038 53.3955 57.2909ZM57.3955 41.2909C57.7684 40.8368 58 40.2022 58 39.5C58 38.1193 57.1046 37 56 37C54.8954 37 54 38.1193 54 39.5C54 40.2022 54.2316 40.8368 54.6045 41.2909C53.6505 41.7038 53 42.4828 53 43.1412C53 44.0105 54.1339 44.0054 55.6033 43.9989C55.7331 43.9983 55.8655 43.9977 56 43.9977C56.1345 43.9977 56.2669 43.9983 56.3967 43.9989C57.8661 44.0054 59 44.0105 59 43.1412C59 42.4828 58.3495 41.7038 57.3955 41.2909Z"
              fill="#3098f3"/>
    </g>
    <defs>
        <clipPath id="clip0">
            <rect width="64" height="64" fill="white"/>
        </clipPath>
    </defs>
</svg>