<svg xmlns="http://www.w3.org/2000/svg" width="80" height="80" viewBox="0 0 64 64" fill="none">
    <g clip-path="url(#clip0)">
        <path fill-rule="evenodd" clip-rule="evenodd"
              d="M43.3047 1.85254V3.76955C43.3047 4.66605 42.9271 5.50625 42.5893 6.09135C43.2471 6.44648 43.7745 6.96213 44.1687 7.52822C44.8155 8.45713 45.155 9.58742 45.155 10.5795V10.5902L45.1547 10.6009C45.1158 12.4182 45.0377 13.7043 44.9684 14.5423C44.963 14.6082 44.9576 14.6713 44.9523 14.7317C45.4986 14.8612 46.3515 15.2174 46.6526 16.196L46.6708 16.2553L46.6816 16.3163C46.8158 17.0769 46.8286 17.7887 46.5827 18.5652C46.3473 19.3084 45.8982 20.0344 45.2587 20.8737L45.234 20.9062L45.2066 20.9366L44.4633 20.2676C45.2066 20.9366 45.2066 20.9366 45.2065 20.9367L45.2064 20.9368L45.2061 20.9372L45.2053 20.9381L45.2029 20.9407L45.1952 20.9492L45.168 20.9789C45.1448 21.0041 45.1117 21.0399 45.0696 21.0846C44.9855 21.1739 44.8653 21.2992 44.7175 21.447C44.4916 21.6729 44.1962 21.9565 43.8632 22.246C43.4278 25.3034 42.1206 28.0658 40.2209 30.1091V32.3528C40.2209 32.7004 40.1987 33.0429 40.1555 33.3788C41.2188 33.6144 41.9281 33.8807 42.4066 34.1304C42.6221 34.2428 42.7951 34.3541 42.9344 34.4611C46.0387 34.5486 48.893 35.6353 51.1892 37.4114L58.5481 29.6437C59.7915 28.3312 62 29.2112 62 31.0192V62C62 63.1046 61.1046 64 60 64H30.6497C30.4172 64 30.1997 63.9632 30 63.8963V64.0001H11.5975C8.56105 64.0001 6.22555 61.3157 6.64559 58.3085L7.20176 54.3266C2.99826 52.78 0 48.7402 0 44C0 37.9249 4.92487 33 11 33C13.4834 33 15.7745 33.8229 17.6156 35.2109C18.9297 34.7625 20.3306 34.5019 21.7864 34.461C21.9294 34.3465 22.1121 34.22 22.344 34.0888C22.8072 33.8269 23.4664 33.5465 24.4001 33.3043C24.363 32.9923 24.3439 32.6748 24.3439 32.3528V30.039C22.6244 28.0799 21.4826 25.4443 21.125 22.4176C21.1179 22.4079 21.1094 22.3965 21.0992 22.3834C21.0199 22.282 20.8964 22.1514 20.7261 21.9861C20.6532 21.9153 20.5659 21.8334 20.4715 21.7449L20.4715 21.7448C20.203 21.493 19.8768 21.1869 19.6581 20.9275C19.389 20.6338 19.0009 20.1344 18.68 19.5158C18.3551 18.8897 18.0583 18.0624 18.1004 17.1627C18.1484 16.1395 18.6829 15.4463 19.3041 15.0565C19.4685 14.9533 19.6428 14.8689 19.8195 14.8033L19.566 10.6403L19.5641 10.6099V10.5795C19.5641 9.09521 20.1241 7.82965 21.1047 6.94341C21.8894 6.23417 22.8982 5.80751 24.0058 5.67049C24.0819 5.45003 24.1873 5.19972 24.3331 4.93499C24.8033 4.0812 25.6723 3.11985 27.2225 2.52706L27.2752 2.50692L27.3298 2.49283C31.1727 1.50112 34.2348 2.2149 36.6321 2.81912L36.8684 2.87879C37.9817 3.16008 38.873 3.3853 39.6801 3.43911C40.4974 3.4936 41.1396 3.36306 41.7325 2.94942L43.3047 1.85254ZM19.3145 36.7978C20.9876 38.7275 22 41.2455 22 44C22 47.0171 20.7853 49.7505 18.8183 51.7378L22.1962 57.5885C23.0246 59.0234 22.533 60.8581 21.0981 61.6866C20.8496 61.83 20.5892 61.9339 20.324 62.0001H28.6458C28.6426 61.5208 28.813 61.0307 29.1978 60.6245L49.8055 38.8719C47.774 37.3538 45.2552 36.4554 42.5278 36.4554H41.9317L41.7075 36.0407C41.6691 36.012 41.598 35.9644 41.4814 35.9035C41.1883 35.7506 40.6346 35.5287 39.6521 35.3159C38.48 38.2422 35.6234 40.3101 32.2824 40.3101C28.9144 40.3101 26.0387 38.2086 24.8846 35.2448C24.1028 35.449 23.6153 35.6675 23.3285 35.8297C23.1384 35.9373 23.0367 36.0198 22.995 36.0572L22.9841 36.0672L22.717 36.4554H22.1913C21.2004 36.4554 20.237 36.574 19.3145 36.7978ZM18.8754 62.0001C18.1123 61.8106 17.4242 61.3232 17 60.5885L13.5957 54.692C12.7634 54.8933 11.8942 55 11 55C10.3691 55 9.75064 54.9469 9.14879 54.8449L8.62636 58.5851C8.37434 60.3895 9.77564 62.0001 11.5975 62.0001H18.8754ZM26.3439 31.8289V32.3528C26.3439 35.6455 29.0052 38.3101 32.2824 38.3101C35.5596 38.3101 38.2209 35.6455 38.2209 32.3528V31.8384C36.5154 33.0045 34.521 33.6798 32.3595 33.6798C30.0935 33.6798 28.0512 33.0115 26.3439 31.8289ZM20.7027 16.6331C20.6855 16.6348 20.6595 16.6382 20.6252 16.6458C20.5407 16.6645 20.4483 16.6996 20.3671 16.7506C20.2884 16.7999 20.229 16.8583 20.1874 16.9254C20.1482 16.9888 20.1061 17.0895 20.0982 17.2564C20.0787 17.6724 20.2187 18.1387 20.4553 18.5948C20.6885 19.0443 20.9759 19.4073 21.1432 19.5877L21.1624 19.6084L21.1804 19.6302C21.3139 19.7916 21.4966 19.9628 21.7281 20.1798L21.7281 20.1798L21.7282 20.1798L21.7285 20.1801L21.7285 20.1802L21.7289 20.1805L21.7291 20.1807L21.7291 20.1807C21.8466 20.2908 21.9765 20.4126 22.1191 20.551C22.304 20.7305 22.5083 20.9385 22.675 21.1518C22.8158 21.332 23.0532 21.6653 23.0998 22.0843C23.7506 27.9258 27.5577 31.6798 32.3595 31.6798C37.1193 31.6798 41.2478 27.4482 41.9282 21.6166L41.9751 21.2148L42.2882 20.9586C42.678 20.6396 43.038 20.2981 43.3033 20.0328C43.435 19.9011 43.5412 19.7903 43.6137 19.7133C43.6292 19.6969 43.6431 19.682 43.6554 19.6688C43.6712 19.6519 43.6842 19.6378 43.6944 19.6268C44.2703 18.8668 44.5471 18.3683 44.676 17.9614C44.7883 17.607 44.8069 17.2633 44.7301 16.7722C44.7289 16.7713 44.7277 16.7703 44.7263 16.7693C44.7242 16.7678 44.7219 16.7662 44.7192 16.7644C44.6758 16.7352 44.5907 16.6976 44.4557 16.67C44.3257 16.6434 44.1915 16.6345 44.0842 16.6336C44.0712 16.6335 44.0588 16.6335 44.0472 16.6336L42.6096 17.1607L42.6074 17.1899C42.5952 17.3354 42.5956 17.5015 42.5961 17.7348V17.7348V17.7349V17.735V17.7351V17.7352V17.7353V17.7354L42.5964 17.8983C42.5964 18.1949 42.592 18.5571 42.5455 18.9347C42.4509 19.7038 42.1718 20.6115 41.3406 21.3318C40.8589 21.7493 40.2248 21.9585 39.6517 22.0679C39.0578 22.1812 38.4134 22.2088 37.8087 22.1823C37.2024 22.1557 36.6025 22.0732 36.0912 21.9489C35.6341 21.8378 35.0735 21.6539 34.7018 21.3235L34.6728 21.2977L34.6459 21.2697C34.2678 20.8771 33.7244 20.219 33.2842 19.477C33.0301 19.0487 32.7651 18.5184 32.6199 17.9527H32.335C32.1897 18.5184 31.9247 19.0487 31.6706 19.477C31.2304 20.219 30.6871 20.8771 30.309 21.2697L30.282 21.2977L30.253 21.3235C29.8814 21.6539 29.3207 21.8378 28.8637 21.9489C28.3524 22.0732 27.7524 22.1557 27.1462 22.1823C26.5414 22.2088 25.897 22.1812 25.3032 22.0679C24.73 21.9585 24.096 21.7493 23.6142 21.3318C22.7831 20.6115 22.504 19.7038 22.4093 18.9347C22.3629 18.5571 22.3585 18.1949 22.3585 17.8983L22.3587 17.7354V17.7353C22.3592 17.5018 22.3596 17.3355 22.3475 17.1899C22.3448 17.1578 22.3428 17.1258 22.3415 17.094L20.7027 16.6331ZM42.9263 14.9144L41.9483 15.273C41.9118 15.2299 41.8746 15.1883 41.8367 15.1482C41.3751 14.6593 40.6848 14.2566 39.9148 14.2566H39.9141H39.914C39.5473 14.2566 38.5758 14.2566 37.5685 14.2761C36.6273 14.2942 35.5697 14.3302 34.9739 14.4125C34.5669 14.4288 34.0378 14.565 33.5644 14.9156C33.2259 15.1664 32.938 15.5113 32.7477 15.9527H32.2071C32.0169 15.5113 31.729 15.1664 31.3904 14.9156C30.9171 14.565 30.388 14.4288 29.981 14.4125C29.3852 14.3302 28.3275 14.2942 27.3863 14.2761C26.379 14.2566 25.4076 14.2566 25.0409 14.2566H25.0408H25.0401C24.2701 14.2566 23.5798 14.6593 23.1181 15.1482C23.0969 15.1707 23.0758 15.1937 23.055 15.2171L21.8274 14.8719L21.5642 10.5508C21.5711 9.60831 21.9176 8.90456 22.4457 8.42717C22.99 7.93523 23.7981 7.62197 24.8043 7.62197H25.7354L25.801 6.7043C25.8015 6.69983 25.8026 6.69113 25.8045 6.67859C25.8094 6.64654 25.8195 6.5902 25.8385 6.51535C25.8768 6.36492 25.9496 6.14562 26.085 5.89981C26.343 5.43137 26.8493 4.82447 27.8858 4.415C31.1862 3.57757 33.8125 4.17103 36.1433 4.75847L36.4277 4.83044C37.4819 5.09765 38.549 5.36814 39.5471 5.43468C39.9173 5.45936 40.2871 5.45704 40.6544 5.4169C40.5637 5.55248 40.4778 5.66908 40.4076 5.76C40.355 5.82798 40.3122 5.88031 40.2839 5.91404C40.2698 5.93088 40.2594 5.94298 40.2534 5.94998L40.2488 5.9552L40.2485 5.95553L40.2483 5.95582L40.2478 5.95631L40.2476 5.95659L40.2473 5.95691L38.9563 7.39975L40.8826 7.61577C41.564 7.69219 42.1189 8.08453 42.5274 8.67113C42.9429 9.26782 43.1526 9.99569 43.1549 10.5696C43.1167 12.344 43.0407 13.5855 42.9752 14.3776C42.9579 14.5877 42.9412 14.7661 42.9263 14.9144ZM21.1546 22.4631C21.1545 22.463 21.1534 22.4611 21.1516 22.4574C21.1538 22.4612 21.1547 22.4631 21.1546 22.4631ZM29.745 16.3991C29.3233 16.3343 28.3645 16.2953 27.3477 16.2757C26.3607 16.2566 25.4054 16.2566 25.0401 16.2566C24.9621 16.2566 24.7658 16.3164 24.5721 16.5214C24.3831 16.7216 24.3317 16.9172 24.3406 17.0238C24.3605 17.2635 24.3596 17.5358 24.3588 17.7696L24.3585 17.8983C24.3585 18.1823 24.3637 18.4416 24.3944 18.6904C24.4539 19.1741 24.5988 19.5385 24.9241 19.8204C25.0205 19.904 25.2538 20.0224 25.6781 20.1034C26.0816 20.1804 26.5647 20.2058 27.0586 20.1842C27.5509 20.1626 28.0206 20.0956 28.3911 20.0055C28.7131 19.9272 28.8676 19.8534 28.9126 19.8318L28.9195 19.8285C29.2088 19.5197 29.6218 19.0108 29.9506 18.4566C30.3246 17.826 30.4719 17.332 30.4439 17.0522C30.4099 16.712 30.2824 16.5838 30.1999 16.5227C30.0821 16.4354 29.9433 16.4108 29.897 16.4108H29.8206L29.745 16.3991ZM35.2099 16.3991C35.6315 16.3343 36.5903 16.2953 37.6072 16.2757C38.5942 16.2566 39.5494 16.2566 39.9148 16.2566C39.9928 16.2566 40.1891 16.3164 40.3827 16.5214C40.5717 16.7216 40.6232 16.9172 40.6143 17.0238C40.5943 17.2635 40.5953 17.5358 40.5961 17.7696L40.5964 17.8983C40.5964 18.1823 40.5911 18.4416 40.5605 18.6904C40.501 19.1741 40.356 19.5385 40.0308 19.8204C39.9343 19.904 39.7011 20.0224 39.2768 20.1034C38.8732 20.1804 38.3901 20.2058 37.8963 20.1842C37.404 20.1626 36.9342 20.0956 36.5638 20.0055C36.2417 19.9272 36.0873 19.8534 36.0422 19.8318L36.0353 19.8285C35.7461 19.5197 35.3331 19.0108 35.0043 18.4566C34.6302 17.826 34.483 17.332 34.511 17.0522C34.545 16.712 34.6724 16.5838 34.7549 16.5227C34.8727 16.4354 35.0115 16.4108 35.0578 16.4108H35.1343L35.2099 16.3991ZM52.5481 44.7012L56 41.0575V46.0767V56V58H54H44.5989H39.9492L43.147 54.6245L52.5481 44.7012ZM54 48.9847V46.0767L52 48.1878L46.4937 54L44.5989 56H47.354H52H54V54V48.9847ZM60 47V45H58V44H60V42H58V41H60V39H58V38H60V36H58V35H60V31.0192L30.6497 62H60V60H58V59H60V57H58V56H60V54H58V53H60V51H58V50H60V48H58V47H60ZM11 53C6.02944 53 2 48.9706 2 44C2 39.0294 6.02944 35 11 35C15.9706 35 20 39.0294 20 44C20 48.9706 15.9706 53 11 53ZM15.5229 54.0301L18.7321 59.5885C19.0082 60.0668 19.6198 60.2306 20.0981 59.9545C20.5764 59.6784 20.7403 59.0668 20.4641 58.5885L17.2631 53.0441C16.7169 53.423 16.1348 53.7537 15.5229 54.0301ZM11.0598 39.0156C10.3304 37.7522 8.7148 37.3193 7.45134 38.0488C6.18788 38.7782 5.75499 40.3938 6.48445 41.6573L6.5336 41.7424C6.19427 42.2664 6.00932 42.8766 5.99904 43.4984C5.54465 43.462 5.11482 43.2099 4.86977 42.7855C4.59363 42.3072 3.98204 42.1433 3.50375 42.4195C3.02546 42.6956 2.86158 43.3072 3.13772 43.7855C3.86415 45.0437 5.26564 45.6679 6.62044 45.4654L6.71533 45.5984L5.48704 46.3075C5.00875 46.5837 4.84487 47.1953 5.12102 47.6736C5.39716 48.1519 6.00875 48.3157 6.48704 48.0396L7.88213 47.2341L7.9549 47.3362C6.97141 48.4121 6.74901 50.0405 7.51664 51.3701C7.79278 51.8484 8.40437 52.0122 8.88266 51.7361C9.36095 51.46 9.52483 50.8484 9.24869 50.3701C8.94617 49.8461 9.01197 49.2096 9.3659 48.7623C10.64 49.5278 12.28 49.5974 13.6592 48.8011C15.0503 47.9979 15.8112 46.5246 15.7714 45.0252C16.3652 44.8944 17.0011 45.1547 17.3213 45.7094C17.5974 46.1877 18.209 46.3516 18.6873 46.0754C19.1656 45.7993 19.3295 45.1877 19.0534 44.7094C18.2704 43.3533 16.7032 42.7337 15.2555 43.0919L15.2171 42.9993L16.5858 42.2091C17.0641 41.9329 17.228 41.3213 16.9518 40.843C16.6757 40.3647 16.0641 40.2009 15.5858 40.477L14.4447 41.1359L14.383 40.987C15.24 39.9146 15.4022 38.3854 14.6744 37.1248C14.3982 36.6465 13.7867 36.4826 13.3084 36.7588C12.8301 37.0349 12.6662 37.6465 12.9423 38.1248C13.1874 38.5492 13.1908 39.0475 12.9951 39.4592C12.415 39.137 11.7468 38.9935 11.0814 39.053L11.0598 39.0156ZM10.997 41.096C11.5534 40.9271 12.1718 41.1452 12.4938 41.6523L13.0336 42.9548L13.6907 44.54C13.9598 45.4966 13.5583 46.5499 12.6592 47.069C11.7649 47.5854 10.6589 47.411 9.96428 46.7091L8.98287 45.3332L8.156 44.174C7.88224 43.6642 7.97711 43.0476 8.35806 42.6438L10.997 41.096ZM8.14094 40.4525C8.09325 40.193 8.20982 39.9202 8.45134 39.7808C8.69019 39.6429 8.98086 39.676 9.18153 39.8422L8.14094 40.4525Z"
              fill="#3098f3"/>
    </g>
    <defs>
        <clipPath id="clip0">
            <rect width="64" height="64" fill="white"/>
        </clipPath>
    </defs>
</svg>