<svg xmlns="http://www.w3.org/2000/svg" xmlns:xlink="http://www.w3.org/1999/xlink" version="1.1"
     id="Слой_1" x="0px" y="0px" viewBox="0 0 200 200" enable-background="new 0 0 200 200"
     xml:space="preserve">
								<g>
									<g>
										<g>
											<path fill="#fff"
                                                  d="M184.9,46.5c0-8.7-7.1-15.7-15.7-15.7c-8.7,0-15.7,7.1-15.7,15.7s7.1,15.7,15.7,15.7     C177.9,62.3,184.9,55.2,184.9,46.5z M169.2,56c-5.2,0-9.4-4.2-9.4-9.4s4.2-9.4,9.4-9.4c5.2,0,9.4,4.2,9.4,9.4S174.4,56,169.2,56z     "/>
                                            <path fill="#fff"
                                                  d="M197.5,78c0-8.7-7.1-15.7-15.7-15.7h-12.6h-12.6c-8.7,0-15.7,7.1-15.7,15.7v40.9h6.9l-4.4,22h10.1v31.5     h31.5v-31.5H195l-4.4-22h6.9V78z M166,166h-6.3v-6.3h6.3V166z M166,153.5h-6.3v-12.6h6.3V153.5z M178.6,166h-6.3v-6.3h6.3V166z      M178.6,153.5h-6.3v-12.6h6.3V153.5z M191.2,112.6h-1.8l-4.5-22.3V78h-6.3v12.6l8.7,44h-5.6h-3.1h-18.9h-3.1H151l8.7-43.4     l0.1-13.2h-6.3v12.3l-4.5,22.3h-1.8V78c0-5.2,4.2-9.4,9.4-9.4h25.2c5.2,0,9.4,4.2,9.4,9.4V112.6z"/>
                                            <path fill="#fff"
                                                  d="M46.5,46.5c0-8.7-7.1-15.7-15.7-15.7s-15.7,7.1-15.7,15.7s7.1,15.7,15.7,15.7S46.5,55.2,46.5,46.5z      M30.8,56c-5.2,0-9.4-4.2-9.4-9.4s4.2-9.4,9.4-9.4s9.4,4.2,9.4,9.4S36,56,30.8,56z"/>
                                            <path fill="#fff"
                                                  d="M59.1,78c0-8.7-7.1-15.7-15.7-15.7H30.8H18.2C9.6,62.3,2.5,69.3,2.5,78v40.9h12.6v53.5h31.5v-53.5h12.6     V78z M27.7,166h-6.3v-6.3h6.3V166z M40.2,166H34v-6.3h6.3V166z M40.2,112.6v3.1v37.7H34V122h-6.3v31.5h-6.3v-37.7v-3.1v-6.3h18.9     V112.6z M52.8,112.6h-6.3V78h-6.3v22H21.4V78h-6.3v34.6H8.8V78c0-5.2,4.2-9.4,9.4-9.4h25.2c5.2,0,9.4,4.2,9.4,9.4V112.6z"/>
                                            <path fill="#fff"
                                                  d="M134.6,93.7c0-19.1-15.5-34.6-34.6-34.6S65.4,74.6,65.4,93.7c0,10.4,4.6,20,12.6,26.6v1.7h-6.3v6.3H78     V144h44v-15.7h6.3V122H122v-1.7C130,113.7,134.6,104.1,134.6,93.7z M115.7,137.7H84.3v-9.4h31.5V137.7z M96.9,93.7     c0-1.7,1.4-3.1,3.1-3.1s3.1,1.4,3.1,3.1s-1.4,3.1-3.1,3.1S96.9,95.4,96.9,93.7z M117,116.3l-1.3,0.9v4.8h-12.6v-19.4     c3.7-1.3,6.3-4.8,6.3-8.9c0-5.2-4.2-9.4-9.4-9.4s-9.4,4.2-9.4,9.4c0,4.1,2.6,7.6,6.3,8.9V122H84.3v-4.8l-1.3-0.9     c-7.2-5.4-11.3-13.7-11.3-22.6c0-15.6,12.7-28.3,28.3-28.3s28.3,12.7,28.3,28.3C128.3,102.7,124.2,110.9,117,116.3z"/>
                                            <path fill="#fff"
                                                  d="M74.8,36v1.1h5.3c2.2,4.6,5.8,8.3,10.4,10.4v5.3h18.9v-5.3c4.6-2.2,8.3-5.8,10.4-10.4h5.3V36     c7.3,3.1,14.1,7.5,19.9,12.8l4.3-4.6c-6.9-6.5-15.2-11.6-24.2-15v-11h-5.3c-2.2-4.6-5.8-8.3-10.4-10.4V2.5H90.6v5.3     C86,10,82.3,13.6,80.1,18.2h-5.3v11c-8.9,3.4-17.2,8.5-24.2,15l4.3,4.6C60.7,43.5,67.5,39.1,74.8,36z M81.1,24.5h3.3l0.7-2.1     c1.6-4.5,5.1-8,9.6-9.6l2.1-0.7V8.8h6.3v3.3l2.1,0.7c4.5,1.6,8,5.1,9.6,9.6l0.7,2.1h3.3v6.3h-3.3l-0.7,2.1     c-1.6,4.5-5.1,8-9.6,9.6l-2.1,0.7v3.3h-6.3v-3.3l-2.1-0.7c-4.5-1.6-8-5.1-9.6-9.6l-0.7-2.1h-3.3V24.5z"/>
                                            <path fill="#fff"
                                                  d="M145,151.2c-6.7,6.2-14.6,11.1-23.1,14.1c-3.4-8.8-12-15-21.9-15s-18.5,6.2-21.9,15     c-8.5-3.1-16.4-7.9-23.1-14.1l-4.3,4.6c7.5,7,16.4,12.3,25.9,15.7c-0.1,0.8-0.1,1.6-0.1,2.5c0,13,10.6,23.6,23.6,23.6     s23.6-10.6,23.6-23.6c0-0.8,0-1.7-0.1-2.5c9.5-3.3,18.4-8.7,25.9-15.7L145,151.2z M100,191.2c-9.5,0-17.3-7.8-17.3-17.3     s7.8-17.3,17.3-17.3s17.3,7.8,17.3,17.3S109.5,191.2,100,191.2z"/>
                                            <path fill="#fff"
                                                  d="M100,37.1c5.2,0,9.4-4.2,9.4-9.4s-4.2-9.4-9.4-9.4s-9.4,4.2-9.4,9.4S94.8,37.1,100,37.1z M100,24.5     c1.7,0,3.1,1.4,3.1,3.1c0,1.7-1.4,3.1-3.1,3.1s-3.1-1.4-3.1-3.1C96.9,25.9,98.3,24.5,100,24.5z"/>
                                            <polygon fill="#fff"
                                                     points="103.1,162.9 96.9,162.9 96.9,176.8 104.1,184 108.5,179.5 103.1,174.2    "/>
                                            <rect x="131.5" y="2.5" fill="#fff" width="6.3" height="6.3"/>
                                            <rect x="144" y="2.5" fill="#fff" width="6.3" height="6.3"/>
                                            <rect x="156.6" y="2.5" fill="#fff" width="6.3" height="6.3"/>
                                            <rect x="40.2" y="191.2" fill="#fff" width="6.3" height="6.3"/>
                                            <rect x="52.8" y="191.2" fill="#fff" width="6.3" height="6.3"/>
                                            <rect x="65.4" y="191.2" fill="#fff" width="6.3" height="6.3"/>
										</g>
									</g>
								</g>
								</svg>