<svg xmlns="http://www.w3.org/2000/svg" xmlns:xlink="http://www.w3.org/1999/xlink" version="1.1"
     id="Слой_1" x="0px" y="0px" viewBox="0 0 200 200" enable-background="new 0 0 200 200"
     xml:space="preserve">
								<g>
									<g>
										<g>
											<path fill="#fff"
                                                  d="M49.7,125.2c-13.9,0-25.2,11.3-25.2,25.2s11.3,25.2,25.2,25.2s25.2-11.3,25.2-25.2S63.6,125.2,49.7,125.2     z M49.7,169.2c-10.4,0-18.9-8.5-18.9-18.9s8.5-18.9,18.9-18.9s18.9,8.5,18.9,18.9S60.1,169.2,49.7,169.2z"/>
                                            <path fill="#fff"
                                                  d="M197.5,62.3V37.1h-8.3c-0.7-2.1-1.5-4.1-2.5-6l5.9-5.9L174.8,7.4l-5.9,5.9c-1.9-1-3.9-1.8-6-2.5V2.5     h-25.2v8.3c-2.1,0.7-4.1,1.5-6,2.5l-5.9-5.9l-7.7,7.7C61.5,15.5,15.5,61.5,15.1,118.2l-7.7,7.7l5.9,5.9c-1,1.9-1.8,3.9-2.5,6H2.5     v25.2h8.3c0.7,2.1,1.5,4.1,2.5,6l-5.9,5.9l17.8,17.8l5.9-5.9c1.9,1,3.9,1.8,6,2.5v8.3h25.2v-8.3c2.1-0.7,4.1-1.5,6-2.5l5.9,5.9     l7.7-7.7c56.7-0.4,102.7-46.4,103.1-103.1l7.7-7.7l-5.9-5.9c1-1.9,1.8-3.9,2.5-6L197.5,62.3L197.5,62.3z M111.6,21.7l-3.5,3.5     l5.9,5.9c-1,1.9-1.8,3.9-2.5,6h-8.3v9.6c-30.4,1.6-54.9,26-56.5,56.5h-9.6v8.3c-2.1,0.7-4.1,1.5-6,2.5l-5.9-5.9l-3.5,3.5     C25.2,63.6,63.6,25.2,111.6,21.7z M114.7,80.8l-33.9,33.9l-6.7-6.7l-5.9,5.9c-1.9-1-3.9-1.8-6-2.5v-8.3H53     c1.6-27,23.2-48.6,50.2-50.2v9.3h8.3c0.7,2.1,1.5,4.1,2.5,6l-5.9,5.9L114.7,80.8z M147,96.9c-1.6,27-23.2,48.6-50.2,50.2v-9.3     h-8.3c-0.7-2.1-1.5-4.1-2.5-6l5.9-5.9l-6.7-6.7l33.9-33.9l6.7,6.7l5.9-5.9c1.9,1,3.9,1.8,6,2.5v8.3H147z M83.1,159     c-0.8,3.1-2,6.1-3.7,8.9l-1.2,2.1l4.8,4.8l-8.9,8.9l-4.8-4.8l-2.1,1.2c-2.8,1.6-5.8,2.9-8.9,3.7l-2.4,0.6v6.8H43.4v-6.8l-2.4-0.6     c-3.1-0.8-6.1-2-8.9-3.7l-2.1-1.2l-4.8,4.8l-8.9-8.9l4.8-4.8l-1.2-2.1c-1.6-2.8-2.9-5.8-3.7-8.9l-0.6-2.4H8.8V144h6.8l0.6-2.4     c0.8-3.1,2-6.1,3.7-8.9l1.2-2.1l-4.8-4.8l8.9-8.9l4.8,4.8l2.1-1.2c2.8-1.6,5.8-2.9,8.9-3.7l2.4-0.6v-6.8H56v6.8l2.4,0.6     c3.1,0.8,6.1,2,8.9,3.7l2.1,1.2l4.8-4.8l8.9,8.9l-4.8,4.8l1.2,2.1c1.6,2.8,2.9,5.8,3.7,8.9l0.6,2.4h6.8v12.6h-6.8L83.1,159z      M88.4,178.3l3.5-3.5l-5.9-5.9c1-1.9,1.8-3.9,2.5-6h8.3v-9.6c30.4-1.6,54.9-26,56.5-56.5h9.6v-8.3c2.1-0.7,4.1-1.5,6-2.5l5.9,5.9     l3.5-3.5C174.8,136.4,136.4,174.8,88.4,178.3z M184.4,56l-0.6,2.4c-0.8,3.1-2,6.1-3.7,8.9l-1.2,2.1l4.8,4.8l-8.9,8.9l-4.8-4.8     l-2.1,1.2c-2.8,1.6-5.8,2.9-8.9,3.7l-2.4,0.6v6.8H144v-6.8l-2.4-0.6c-3.1-0.8-6.1-2-8.9-3.7l-2.1-1.2l-4.8,4.8l-8.9-8.9l4.8-4.8     l-1.2-2.1c-1.6-2.8-2.9-5.8-3.7-8.9l-0.6-2.4h-6.8V43.4h6.8l0.6-2.4c0.8-3.1,2-6.1,3.7-8.9l1.2-2.1l-4.8-4.8l8.9-8.9l4.8,4.8     l2.1-1.2c2.8-1.6,5.8-2.9,8.9-3.7l2.4-0.6V8.8h12.6v6.8l2.4,0.6c3.1,0.8,6.1,2,8.9,3.7l2.1,1.2l4.8-4.8l8.9,8.9l-4.8,4.8l1.2,2.1     c1.6,2.8,2.9,5.8,3.7,8.9l0.6,2.4h6.8V56H184.4z"/>
                                            <path fill="#fff"
                                                  d="M150.3,24.5c-13.9,0-25.2,11.3-25.2,25.2s11.3,25.2,25.2,25.2s25.2-11.3,25.2-25.2S164.2,24.5,150.3,24.5     z M150.3,68.5c-10.4,0-18.9-8.5-18.9-18.9s8.5-18.9,18.9-18.9s18.9,8.5,18.9,18.9S160.7,68.5,150.3,68.5z"/>

                                            <rect x="96.9" y="114.4"
                                                  transform="matrix(0.7071 0.7071 -0.7071 0.7071 113.3439 -35.8941)"
                                                  fill="#fff" width="6.3" height="8.9"/>

                                            <rect x="115.7" y="95.5"
                                                  transform="matrix(0.7071 0.7071 -0.7071 0.7071 105.5216 -54.7649)"
                                                  fill="#fff" width="6.3" height="8.9"/>

                                            <rect x="106.3" y="105"
                                                  transform="matrix(0.7071 0.7071 -0.7071 0.7071 109.4356 -45.327)"
                                                  fill="#fff" width="6.3" height="8.9"/>

                                            <rect x="78" y="95.6"
                                                  transform="matrix(0.7071 0.7071 -0.7071 0.7071 94.4745 -28.0816)"
                                                  fill="#fff" width="6.3" height="8.9"/>

                                            <rect x="96.9" y="76.7"
                                                  transform="matrix(0.7071 0.7071 -0.7071 0.7071 86.6531 -46.9547)"
                                                  fill="#fff" width="6.3" height="8.9"/>

                                            <rect x="87.4" y="86.1"
                                                  transform="matrix(0.7071 0.7071 -0.7071 0.7071 90.5671 -37.5168)"
                                                  fill="#fff" width="6.3" height="8.9"/>
										</g>
									</g>
								</g>
								</svg>